<svg width="24" height="24" fill="none" xmlns="http://www.w3.org/2000/svg"><path d="M11.14 1.563A10.815 10.815 0 0 0 3.828 5.5c-.493.612-1.175 1.678-1.141 1.781.008.023.779.624 1.714 1.335L6.1 9.909l.09-.239c.164-.436.534-1.097.851-1.519a6.604 6.604 0 0 1 3.893-2.48c.35-.076.527-.088 1.286-.088.758 0 .936.012 1.284.088a6.218 6.218 0 0 1 2.646 1.252l.211.168.249-.235c.138-.129.814-.774 1.503-1.433 1.192-1.14 1.249-1.202 1.175-1.261l-.452-.366c-1.428-1.156-3.069-1.869-4.976-2.162-.601-.092-2.131-.132-2.72-.071m1.078 8.567c-.01.028-.014.905-.008 1.95l.01 1.9 2.949.01 2.949.011-.023.129c-.105.604-.409 1.314-.815 1.907a5.76 5.76 0 0 1-1.094 1.162c-.124.094-.226.185-.226.202 0 .018.749.601 1.665 1.296l1.665 1.264.185-.169c1.331-1.216 2.333-3.054 2.779-5.092.3-1.374.326-3.258.061-4.43l-.043-.19h-5.017c-3.977 0-5.021.01-5.037.05" fill="#4285F4" fill-rule="evenodd"/></svg>