<svg width="24" height="24" fill="none" xmlns="http://www.w3.org/2000/svg"><path d="M22.501 12.233c0-.863-.072-1.493-.226-2.147h-10.06v3.897h5.905c-.119.968-.762 2.427-2.19 3.407l-.02.13 3.18 2.415.22.021c2.024-1.831 3.191-4.526 3.191-7.723" fill="#4285F4" fill-rule="evenodd"/><path d="M12.214 22.5c2.893 0 5.321-.933 7.095-2.543l-3.38-2.567c-.905.618-2.12 1.05-3.715 1.05a6.438 6.438 0 01-6.095-4.363l-.126.01-3.307 2.508-.043.118c1.761 3.43 5.38 5.787 9.571 5.787z" fill="#34A853" fill-rule="evenodd"/><path d="M6.12 14.077A6.348 6.348 0 015.763 12c0-.723.131-1.423.346-2.077l-.006-.139-3.35-2.548-.109.05A10.34 10.34 0 001.501 12c0 1.692.417 3.29 1.143 4.713l3.476-2.636" fill="#FBBC05" fill-rule="evenodd"/><path d="M12.214 5.56c2.012 0 3.369.852 4.143 1.563L19.38 4.23c-1.857-1.692-4.274-2.73-7.167-2.73-4.19 0-7.81 2.357-9.571 5.787l3.464 2.636a6.465 6.465 0 016.107-4.363" fill="#EB4335" fill-rule="evenodd"/></svg>