<svg width="20" height="18" fill="none" xmlns="http://www.w3.org/2000/svg"><path d="M17.683.797c-.055.034-.61.574-1.233 1.2a51.183 51.183 0 01-1.151 1.136c-.01 0-.212-.129-.45-.287-.47-.311-1.372-.77-1.894-.962-2.776-1.022-5.797-.551-8.288 1.293-1.306.967-2.43 2.238-3.371 3.814C.947 7.575.294 8.913.275 9.085c-.014.123.013.208.193.604.818 1.807 1.973 3.463 3.178 4.561l.29.263-1.131 1.135c-.622.625-1.148 1.168-1.168 1.208-.081.16-.024.352.152.515.183.17.335.204.504.115.108-.057 15.998-15.944 16.061-16.057.089-.16.051-.327-.116-.507-.179-.193-.376-.238-.555-.125m-6.742 1.587a7.813 7.813 0 012.542.791c.311.155.994.574 1.054.646.035.043-.141.233-1.139 1.23l-1.181 1.18-.2-.133a3.752 3.752 0 00-1.367-.549c-.396-.075-1.187-.052-1.533.044-.701.195-1.148.446-1.645.922a3.52 3.52 0 00-1.099 2.299 3.684 3.684 0 00.676 2.47c.047.065-.013.13-1.179 1.296-1.201 1.201-1.231 1.228-1.303 1.177-.113-.079-.709-.671-.997-.99a12.445 12.445 0 01-1.483-2.059c-.29-.5-.787-1.494-.787-1.576 0-.082.623-1.296.898-1.749C3.39 5.419 4.942 3.935 6.683 3.096c1.088-.524 2.074-.753 3.274-.759.377-.002.75.016.984.047m6.341 3.144c-.152.07-.305.235-.337.361-.035.14.03.277.346.729.166.238.411.612.545.832.274.45.864 1.604.864 1.688 0 .085-.659 1.366-.915 1.779-1.202 1.939-2.682 3.365-4.368 4.21a7.28 7.28 0 01-3.417.808 6.892 6.892 0 01-2.146-.305c-.443-.13-.563-.128-.704.013-.255.256-.235.646.042.786.272.137 1.12.342 1.758.425.498.065 1.583.074 2.033.017 1.53-.193 2.967-.772 4.262-1.718 1.788-1.305 3.204-3.109 4.277-5.448.188-.408.217-.498.204-.617-.018-.161-.527-1.228-.875-1.838-.408-.712-1.017-1.604-1.161-1.699a.395.395 0 00-.408-.023M10.75 6.567c.207.066.578.237.717.331.04.027-.309.392-1.8 1.885-1.018 1.017-1.861 1.85-1.874 1.85-.046 0-.27-.443-.351-.694a2.3 2.3 0 01-.1-.63c-.041-.856.197-1.49.774-2.063.4-.398.778-.607 1.321-.73.316-.072 1.008-.045 1.313.051m2.128 2.682c-.145.063-.204.164-.281.489a3.052 3.052 0 01-.53 1.085 2.825 2.825 0 01-1.476.915c-.332.08-.436.146-.491.312-.056.17.008.447.131.564.134.128.298.142.653.053a3.669 3.669 0 002.685-2.805c.072-.34-.034-.548-.319-.625-.172-.047-.243-.045-.372.012" fill-rule="evenodd" fill="#000"/></svg>