<svg width="32" height="32" fill="none" xmlns="http://www.w3.org/2000/svg"><path d="M16 21.647a5.647 5.647 0 110-11.294 5.647 5.647 0 010 11.294z" fill="#AE9AFF"/><path d="M5.105 18.282c-1.618.28-2.728 1.815-2.106 3.31a13.728 13.728 0 004.045 5.395 14.128 14.128 0 009.126 3.129 14.111 14.111 0 009.01-3.44 13.703 13.703 0 003.85-5.53c.569-1.515-.595-3.011-2.223-3.236-1.627-.224-3.088.939-3.892 2.346a7.896 7.896 0 01-1.68 2.044 8.096 8.096 0 01-5.169 1.973 8.106 8.106 0 01-5.236-1.795 7.908 7.908 0 01-1.75-1.985c-.854-1.379-2.356-2.491-3.975-2.21z" fill="#AE9AFF"/><path d="M30.008 17.405c.073-.565.11-1.14.11-1.725 0-7.62-6.321-13.798-14.118-13.798-7.797 0-14.118 6.178-14.118 13.799 0 .749.061 1.484.18 2.201a4.42 4.42 0 012.753-1.675c1.183-.204 2.258.076 3.166.6a7.808 7.808 0 01-.081-1.126c0-4.373 3.627-7.917 8.1-7.917 4.474 0 8.1 3.544 8.1 7.917 0 .288-.016.572-.047.853.89-.555 1.955-.872 3.144-.709a4.428 4.428 0 012.811 1.58z" fill="#5429FF"/></svg>