<svg width="19" height="19" fill="none" xmlns="http://www.w3.org/2000/svg"><path d="M8.883.021A9.243 9.243 0 00.289 7.014C.091 7.821.025 8.387.026 9.263c.001 1.51.291 2.738.971 4.116a9.175 9.175 0 003.147 3.566c.462.308 1.39.783 1.883.963 2.052.749 4.22.77 6.26.061 1.36-.473 2.439-1.154 3.484-2.198 1.044-1.045 1.725-2.124 2.198-3.484a9.24 9.24 0 00-.061-6.26c-.18-.493-.655-1.421-.963-1.883A9.302 9.302 0 0011.829.38 9.836 9.836 0 008.883.021m1.458 1.038c1.539.221 2.984.85 4.139 1.8.415.342 1.05.999 1.348 1.395a8.277 8.277 0 01.969 8.359 8.376 8.376 0 01-4.184 4.184 8.298 8.298 0 01-7.745-.544 8.932 8.932 0 01-2.009-1.773c-.97-1.179-1.601-2.653-1.817-4.252-.086-.634-.049-1.757.082-2.47a8.374 8.374 0 011.624-3.606c.271-.351 1.053-1.133 1.404-1.404a8.376 8.376 0 013.606-1.624c.222-.041.653-.095.982-.124.273-.023 1.285.014 1.601.059m-3.517 5.47c-.276.152-.401.437-.287.653.025.047.517.556 1.093 1.13.575.575 1.047 1.059 1.047 1.076 0 .017-.477.509-1.059 1.093s-1.074 1.102-1.093 1.151a.393.393 0 00.038.376c.149.246.405.359.598.263.058-.03.587-.533 1.175-1.119l1.069-1.065 1.1 1.097c1.18 1.177 1.193 1.187 1.418 1.103.131-.05.324-.245.366-.371.074-.224.062-.239-1.106-1.411l-1.096-1.101 1.065-1.068c.586-.588 1.089-1.117 1.119-1.175.096-.193-.017-.449-.263-.598a.393.393 0 00-.376-.038c-.049.019-.567.511-1.151 1.093-.584.582-1.076 1.059-1.093 1.059-.017 0-.501-.472-1.076-1.047-.574-.576-1.083-1.068-1.13-1.093a.431.431 0 00-.358-.008" fill-rule="evenodd" fill="#000"/></svg>